<?xml version="1.0" standalone="no"?>
<!DOCTYPE svg PUBLIC "-//W3C//DTD SVG 20010904//EN"
 "http://www.w3.org/TR/2001/REC-SVG-20010904/DTD/svg10.dtd">
<svg version="1.0" xmlns="http://www.w3.org/2000/svg"
 width="512.000000pt" height="512.000000pt" viewBox="0 0 512.000000 512.000000"
 preserveAspectRatio="xMidYMid meet">
<metadata>
Created by potrace 1.14, written by Peter Selinger 2001-2017
</metadata>
<g transform="translate(0.000000,512.000000) scale(0.100000,-0.100000)"
fill="#000000" stroke="none">
<path d="M2418 4975 c-2 -1 -39 -5 -83 -9 -93 -7 -122 -11 -228 -32 -42 -9
-89 -17 -102 -20 -35 -6 -256 -73 -280 -84 -11 -5 -42 -18 -70 -29 -339 -129
-684 -381 -950 -691 -46 -54 -185 -244 -185 -253 0 -3 -16 -29 -35 -59 -91
-137 -200 -395 -260 -612 -82 -303 -103 -682 -54 -996 85 -543 356 -1048 761
-1415 130 -118 230 -193 375 -281 253 -154 553 -267 833 -314 36 -6 76 -13 90
-16 101 -18 400 -24 552 -12 104 9 254 35 368 65 52 13 102 26 110 28 127 32
373 141 535 238 89 53 232 150 245 166 3 4 29 26 59 49 129 101 284 264 402
422 205 274 352 603 423 941 40 197 51 296 50 499 -1 188 -3 222 -28 390 -17
118 -67 305 -114 435 -43 117 -46 124 -98 231 -316 652 -915 1131 -1624 1298
-58 14 -125 28 -150 31 -25 3 -56 8 -70 10 -79 12 -153 17 -302 20 -92 1 -168
2 -170 0z"/>
</g>
</svg>
